<svg width="194" height="45" viewBox="0 0 194 45" fill="none" xmlns="http://www.w3.org/2000/svg">
<g filter="url(#filter0_d_77_127)">
<path d="M19.832 34.768C17.944 34.768 16.184 34.512 14.552 34C12.952 33.456 11.544 32.656 10.328 31.6C9.144 30.544 8.2 29.216 7.496 27.616C6.824 26.016 6.488 24.144 6.488 22C6.488 19.888 6.824 18.08 7.496 16.576C8.2 15.04 9.112 13.792 10.232 12.832C11.352 11.84 12.632 11.12 14.072 10.672C15.512 10.192 16.984 9.952 18.488 9.952C20.184 9.952 21.72 10.208 23.096 10.72C24.504 11.232 25.704 11.936 26.696 12.832C27.72 13.728 28.504 14.8 29.048 16.048C29.624 17.296 29.912 18.656 29.912 20.128C29.912 21.216 29.608 22.048 29 22.624C28.392 23.2 27.544 23.568 26.456 23.728L14.6 25.504C14.952 26.56 15.672 27.36 16.76 27.904C17.848 28.416 19.096 28.672 20.504 28.672C21.816 28.672 23.048 28.512 24.2 28.192C25.384 27.84 26.344 27.44 27.08 26.992C27.592 27.312 28.024 27.76 28.376 28.336C28.728 28.912 28.904 29.52 28.904 30.16C28.904 31.6 28.232 32.672 26.888 33.376C25.864 33.92 24.712 34.288 23.432 34.48C22.152 34.672 20.952 34.768 19.832 34.768ZM18.488 15.904C17.72 15.904 17.048 16.032 16.472 16.288C15.928 16.544 15.48 16.88 15.128 17.296C14.776 17.68 14.504 18.128 14.312 18.64C14.152 19.12 14.056 19.616 14.024 20.128L22.232 18.784C22.136 18.144 21.784 17.504 21.176 16.864C20.568 16.224 19.672 15.904 18.488 15.904ZM46.9918 16.384C46.1918 16.384 45.4238 16.512 44.6878 16.768C43.9838 17.024 43.3598 17.408 42.8158 17.92C42.3038 18.4 41.8878 19.008 41.5678 19.744C41.2478 20.48 41.0878 21.344 41.0878 22.336C41.0878 24.32 41.6478 25.808 42.7678 26.8C43.9198 27.792 45.3118 28.288 46.9438 28.288C47.9038 28.288 48.7358 28.176 49.4398 27.952C50.1438 27.728 50.7678 27.488 51.3118 27.232C51.9518 27.68 52.4318 28.176 52.7518 28.72C53.0718 29.232 53.2318 29.856 53.2318 30.592C53.2318 31.904 52.6078 32.928 51.3598 33.664C50.1118 34.368 48.3838 34.72 46.1758 34.72C44.1598 34.72 42.3358 34.432 40.7038 33.856C39.0718 33.248 37.6638 32.416 36.4798 31.36C35.3278 30.272 34.4318 28.976 33.7918 27.472C33.1518 25.968 32.8318 24.304 32.8318 22.48C32.8318 20.368 33.1678 18.528 33.8398 16.96C34.5438 15.36 35.4878 14.048 36.6718 13.024C37.8558 12 39.2158 11.232 40.7518 10.72C42.3198 10.208 43.9678 9.952 45.6958 9.952C47.9998 9.952 49.7758 10.368 51.0238 11.2C52.2718 12.032 52.8958 13.104 52.8958 14.416C52.8958 15.024 52.7518 15.6 52.4638 16.144C52.1758 16.656 51.8398 17.104 51.4558 17.488C50.9118 17.232 50.2558 16.992 49.4878 16.768C48.7198 16.512 47.8878 16.384 46.9918 16.384ZM80.765 22.336C80.765 24.32 80.461 26.096 79.853 27.664C79.245 29.2 78.381 30.496 77.261 31.552C76.173 32.608 74.861 33.408 73.325 33.952C71.789 34.496 70.077 34.768 68.189 34.768C66.301 34.768 64.589 34.48 63.053 33.904C61.517 33.328 60.189 32.512 59.069 31.456C57.981 30.368 57.133 29.056 56.525 27.52C55.917 25.984 55.613 24.256 55.613 22.336C55.613 20.448 55.917 18.736 56.525 17.2C57.133 15.664 57.981 14.368 59.069 13.312C60.189 12.224 61.517 11.392 63.053 10.816C64.589 10.24 66.301 9.952 68.189 9.952C70.077 9.952 71.789 10.256 73.325 10.864C74.861 11.44 76.173 12.272 77.261 13.36C78.381 14.416 79.245 15.712 79.853 17.248C80.461 18.784 80.765 20.48 80.765 22.336ZM63.965 22.336C63.965 24.288 64.333 25.792 65.069 26.848C65.837 27.872 66.893 28.384 68.237 28.384C69.581 28.384 70.605 27.856 71.309 26.8C72.045 25.744 72.413 24.256 72.413 22.336C72.413 20.416 72.045 18.944 71.309 17.92C70.573 16.864 69.533 16.336 68.189 16.336C66.845 16.336 65.805 16.864 65.069 17.92C64.333 18.944 63.965 20.416 63.965 22.336Z" fill="#4EF037"/>
<path d="M93.6354 11.632C93.4114 11.28 93.2034 10.8 93.0114 10.192C92.8194 9.584 92.7234 8.944 92.7234 8.272C92.7234 7.024 92.9954 6.128 93.5394 5.584C94.1154 5.04 94.8514 4.768 95.7474 4.768H116.675C116.899 5.12 117.107 5.6 117.299 6.208C117.491 6.816 117.587 7.456 117.587 8.128C117.587 9.376 117.299 10.272 116.723 10.816C116.179 11.36 115.459 11.632 114.563 11.632H109.235V33.808C108.883 33.904 108.323 34 107.555 34.096C106.819 34.192 106.083 34.24 105.347 34.24C104.611 34.24 103.955 34.176 103.379 34.048C102.835 33.952 102.371 33.76 101.987 33.472C101.603 33.184 101.315 32.784 101.123 32.272C100.931 31.76 100.835 31.088 100.835 30.256V11.632H93.6354ZM127.265 33.952C126.945 34.048 126.433 34.144 125.729 34.24C125.057 34.336 124.353 34.384 123.617 34.384C122.913 34.384 122.273 34.336 121.697 34.24C121.153 34.144 120.689 33.952 120.305 33.664C119.921 33.376 119.617 32.992 119.393 32.512C119.201 32 119.105 31.344 119.105 30.544V16.144C119.105 15.408 119.233 14.784 119.489 14.272C119.777 13.728 120.177 13.248 120.689 12.832C121.201 12.416 121.825 12.048 122.561 11.728C123.329 11.376 124.145 11.072 125.009 10.816C125.873 10.56 126.769 10.368 127.697 10.24C128.625 10.08 129.553 10 130.481 10C132.017 10 133.233 10.304 134.129 10.912C135.025 11.488 135.473 12.448 135.473 13.792C135.473 14.24 135.409 14.688 135.281 15.136C135.153 15.552 134.993 15.936 134.801 16.288C134.129 16.288 133.441 16.32 132.737 16.384C132.033 16.448 131.345 16.544 130.673 16.672C130.001 16.8 129.361 16.944 128.753 17.104C128.177 17.232 127.681 17.392 127.265 17.584V33.952ZM148.121 28.816C148.665 28.816 149.257 28.768 149.897 28.672C150.569 28.544 151.065 28.384 151.385 28.192V24.352L147.929 24.64C147.033 24.704 146.297 24.896 145.721 25.216C145.145 25.536 144.857 26.016 144.857 26.656C144.857 27.296 145.097 27.824 145.577 28.24C146.089 28.624 146.937 28.816 148.121 28.816ZM147.737 9.952C149.465 9.952 151.033 10.128 152.441 10.48C153.881 10.832 155.097 11.376 156.089 12.112C157.113 12.816 157.897 13.728 158.441 14.848C158.985 15.936 159.257 17.232 159.257 18.736V29.488C159.257 30.32 159.017 31.008 158.537 31.552C158.089 32.064 157.545 32.512 156.905 32.896C154.825 34.144 151.897 34.768 148.121 34.768C146.425 34.768 144.889 34.608 143.513 34.288C142.169 33.968 141.001 33.488 140.009 32.848C139.049 32.208 138.297 31.392 137.753 30.4C137.241 29.408 136.985 28.256 136.985 26.944C136.985 24.736 137.641 23.04 138.953 21.856C140.265 20.672 142.297 19.936 145.049 19.648L151.337 18.976V18.64C151.337 17.712 150.921 17.056 150.089 16.672C149.289 16.256 148.121 16.048 146.585 16.048C145.369 16.048 144.185 16.176 143.033 16.432C141.881 16.688 140.841 17.008 139.913 17.392C139.497 17.104 139.145 16.672 138.857 16.096C138.569 15.488 138.425 14.864 138.425 14.224C138.425 13.392 138.617 12.736 139.001 12.256C139.417 11.744 140.041 11.312 140.873 10.96C141.801 10.608 142.889 10.352 144.137 10.192C145.417 10.032 146.617 9.952 147.737 9.952ZM187.046 29.776C186.886 31.28 186.438 32.432 185.702 33.232C184.998 34.032 183.958 34.432 182.582 34.432C181.558 34.432 180.646 34.192 179.846 33.712C179.046 33.2 178.182 32.352 177.254 31.168L172.502 25.216V33.952C172.15 34.016 171.622 34.096 170.918 34.192C170.246 34.32 169.558 34.384 168.854 34.384C168.15 34.384 167.51 34.336 166.934 34.24C166.39 34.144 165.926 33.952 165.542 33.664C165.158 33.376 164.854 32.992 164.63 32.512C164.438 32 164.342 31.344 164.342 30.544V2.752C164.694 2.656 165.206 2.56 165.878 2.464C166.582 2.336 167.286 2.272 167.99 2.272C168.694 2.272 169.318 2.32 169.862 2.416C170.438 2.512 170.918 2.704 171.302 2.992C171.686 3.28 171.974 3.68 172.166 4.192C172.39 4.672 172.502 5.312 172.502 6.112V18.784L180.758 10.336C182.422 10.336 183.75 10.704 184.742 11.44C185.766 12.176 186.278 13.104 186.278 14.224C186.278 14.704 186.198 15.152 186.038 15.568C185.878 15.952 185.622 16.352 185.27 16.768C184.95 17.184 184.518 17.632 183.974 18.112C183.462 18.56 182.854 19.088 182.15 19.696L179.366 22.096L187.046 29.776Z" fill="white"/>
</g>
<defs>
<filter id="filter0_d_77_127" x="0.487793" y="0.271973" width="192.558" height="44.4961" filterUnits="userSpaceOnUse" color-interpolation-filters="sRGB">
<feFlood flood-opacity="0" result="BackgroundImageFix"/>
<feColorMatrix in="SourceAlpha" type="matrix" values="0 0 0 0 0 0 0 0 0 0 0 0 0 0 0 0 0 0 127 0" result="hardAlpha"/>
<feOffset dy="4"/>
<feGaussianBlur stdDeviation="3"/>
<feComposite in2="hardAlpha" operator="out"/>
<feColorMatrix type="matrix" values="0 0 0 0 0 0 0 0 0 0 0 0 0 0 0 0 0 0 0.25 0"/>
<feBlend mode="normal" in2="BackgroundImageFix" result="effect1_dropShadow_77_127"/>
<feBlend mode="normal" in="SourceGraphic" in2="effect1_dropShadow_77_127" result="shape"/>
</filter>
</defs>
</svg>
